<?xml version="1.0" encoding="UTF-8"?><svg xmlns="http://www.w3.org/2000/svg" viewBox="0 0 288 288"><g id="a"><path d="M134.83,154.25c-2.76,7.94-9.7,23.12-18.1,29.01,.98-6.48,7.9-18.83,18.1-29.01m76.87-10.23c-.95,37.55-31.84,67.43-69.2,67.34-.53,0-1.06-.01-1.59-.02-18.42-.46-35.57-8.09-48.29-21.48-12.73-13.39-19.48-30.9-19.02-49.32,.86-34.22,27.01-62.86,60.92-66.86-11.42,15.56-36.47,58.02-40.59,69.93-.14,.38-.3,.81-.48,1.27-1.39,3.63-3.72,9.71-1.27,11.97,1.48,1.36,3.79,1.72,5.61,.87,3.21-1.43,8.29-6.82,12.19-11.34-.12,1.59,.23,2.91,1.02,3.76,.67,.72,1.6,1.1,2.75,1.07,2.37-.05,5.31-1.82,7.68-4.61,1.32-1.56,2.36-3.3,3.01-5.06h.19c.86-.03,1.71-.21,2.56-.55-2.12,3.67-2.47,7.37-.81,9.17,.67,.72,1.6,1.09,2.74,1.07,2.37-.05,5.32-1.82,7.68-4.61,.52-.61,.99-1.25,1.42-1.9-.37,1.36-.88,2.86-1.4,4.09-.19,.37-.37,.72-.71,1.05-8.87,7.95-16.34,17.96-19.96,26.77-.44,1.04-.83,2.24-1.19,3.64-.24,.91-.4,1.79-.49,2.62-.08,.75-.12,1.7,.22,2.45,.4,.86,1.3,1.41,2.2,1.34,.81-.06,1.54-.52,2.02-.86,.56-.4,1.12-.84,1.64-1.33,8.5-7.84,13.66-20.39,18.62-33.64,.09-.2,.17-.4,.25-.6,.38-.93,.73-1.8,1.39-2.41l8.17-8.05c.08-.07,.16-.13,.25-.19l.08-.05c.08-.04,.15-.07,.21-.08l.07-.02s.1,0,.11,.02c.06,.07,.1,.35-.15,.96-.1,.23-2.25,5.72-2.3,6.83-.04,.69,.36,1.24,1.02,1.41,.63,.16,1.23-.02,1.71-.52,.24-.24,.43-.52,.62-.79l2.14-2.99s3.19-4.14,4.63-4.69c.24-.09,.57-.17,.77-.02,.25,.19,.25,.68,.23,.85-.1,.62-.61,3.78-.54,4.26,.11,.77,.44,1.21,1.02,1.36,.64,.17,1.23-.02,1.71-.51,.17-.19,.55-.73,.94-1.32,.1-.14,.18-.26,.24-.34l1.55-2.47c.46-.74,1-1.43,1.58-2.07l.27-.29c.53-.59,1.34-1.48,2.09-1.48h0c.2,0,.4,.1,.48,.24,.11,.18,.07,.45,0,.74-.14,.65-.32,1.46-.52,2.33-.43,1.86-.93,3.96-1.09,5.37-.12,.98-.35,4.23,1.75,4.94,.07,.02,.2,.06,.31,.06,1.36,.12,2.28-.47,2.94-.99,.64-.52,1.23-1.09,1.8-1.78,.13,.35,.31,.69,.54,.99,1.32,1.75,3.87,2.3,6.05,1.3,5.32-2.42,24.73-17.65,30.72-22.97,1.13,5.3,1.63,10.74,1.5,16.17m-89.98-7.38c.15,.07,.28,.16,.39,.28,.38,.41,.48,1.16,.31,2.12-.12-.1-.23-.21-.33-.33-.49-.62-.49-1.43-.37-2.07m-1.97,2.47c.41,.89,1.09,1.54,2.01,1.95-.54,1.21-1.33,2.44-2.28,3.59-1.86,2.24-4.01,3.71-5.48,3.74-.44,.02-.79-.12-1.03-.39-.27-.3-.4-.74-.4-1.29,0-1.64,1.15-4.19,3.03-6.44,1.2-1.45,2.56-2.6,3.78-3.22-.06,.73,.06,1.44,.35,2.07m15.11,5.56c-1.86,2.24-4.01,3.71-5.48,3.74-.45,.01-.78-.12-1.03-.39-.27-.3-.4-.74-.4-1.29,0-1.64,1.15-4.19,3.03-6.44,1.86-2.24,4.02-3.71,5.48-3.74h.04c.42,0,.75,.13,.98,.39,1.08,1.19-.13,4.73-2.63,7.74m9.53-71.44c31.04,.78,57.88,22.36,65.33,52.5-.83,.64-1.94,1.51-3.25,2.55-7.27,5.75-20.8,16.45-27.92,19.67-.81,.37-1.55,.41-2.03,.13-.36-.22-.58-.62-.62-1.17-.21-2.84,3.37-7.14,6.07-9.18-.05,.57-.05,1,.35,1.3,.28,.21,.66,.29,1.04,.21,.38-.08,.7-.3,.88-.61,.49-.85,.78-1.59,.9-2.28,.21-.99-.09-1.78-.79-2.15-1.54-.87-3.02,.2-4,.9l-.11,.08c-2.17,1.6-5.14,4.86-6.62,7.95-2.21,3.77-3.31,5.06-4.19,4.97-.12-.02-.21-.07-.28-.18-.8-1.18,.68-6.66,1.4-9.29,.26-.96,.49-2.08,.25-3.14-.15-.66-.52-1.2-1.02-1.46-.41-.22-.92-.29-1.52-.18-2,.35-3.46,1.95-4.76,3.37-.22,.23-.42,.46-.63,.69l-1.52,1.61c-.06,.05-.12,.05-.12,.06-.03-.86-.08-1.98-.14-2.39-.08-.55-.34-.98-.73-1.24-.46-.3-1.09-.36-1.82-.16-.49,.13-1.01,.37-1.63,.74-.85,.5-2.23,1.63-4.08,3.34,.06-.61,.12-1.18-.03-1.76-.28-1.12-1.08-1.62-2.44-1.52-.33,.02-.69,.13-1.11,.33-.9,.38-1.95,1.42-2,1.46l-6.25,6.14c.3-1.42,.61-4.08-.48-5.61,.2-1.76-.14-3.18-.99-4.11-.63-.67-1.5-1.05-2.53-1.07h-.09c-2.03,0-4.54,1.29-6.74,3.46-.83,.7-1.84,1.47-2.98,1.97-.67,.29-1.45,.48-2.17,.54,.43-2.11,.12-3.85-.86-4.92-.65-.7-1.56-1.07-2.63-1.07h-.04c-2.28,.01-5.06,1.6-7.41,4.22-.91,.93-2.01,2.12-3.29,3.49-4.58,4.94-10.87,11.71-15.05,13.58-.18,.08-.38,.06-.54-.04-.12-.08-.19-.19-.2-.31-.45-11.62,32.38-65.95,43.01-81.28,2.16-.14,4.33-.19,6.44-.14m49.88,18.9c-12.67-13.04-30.24-21.34-49.81-21.83-19.21-.49-37.45,6.56-51.4,19.82-13.95,13.27-21.91,31.15-22.39,50.34-.49,19.2,6.55,37.45,19.82,51.41,13.27,13.95,31.15,21.9,50.34,22.39,.55,.01,1.11,.02,1.66,.02,38.95,.1,71.15-31.05,72.13-70.19,.51-20.12-7.33-38.55-20.35-51.96"/></g><g id="b"/></svg>